<?xml version="1.0" encoding="iso-8859-1"?>
<!-- Uploaded to: SVG Repo, www.svgrepo.com, Generator: SVG Repo Mixer Tools -->
<svg height="800px" width="800px" version="1.1" id="Layer_1" xmlns="http://www.w3.org/2000/svg" xmlns:xlink="http://www.w3.org/1999/xlink" 
	 viewBox="0 0 511.999 511.999" xml:space="preserve">
<path style="fill:#CCD8E5;" d="M503.665,66.8v316.343c0,17.909-14.509,32.429-32.417,32.429H40.754
	c-17.909,0-32.418-14.52-32.418-32.429V66.8c0-17.909,14.509-32.429,32.418-32.429h430.493
	C489.155,34.371,503.665,48.891,503.665,66.8z"/>
<path style="fill:#DFEAF4;" d="M503.665,66.8v316.343c0,17.909-14.509,32.429-32.417,32.429H183.344l23.752-57.925L339.655,34.371
	h131.592C489.155,34.371,503.665,48.891,503.665,66.8z"/>
<path style="fill:#B8E9F2;" d="M503.665,66.8v290.847H8.337V66.8c0-17.909,14.509-32.429,32.418-32.429h430.493
	C489.155,34.371,503.665,48.891,503.665,66.8z"/>
<path style="fill:#D4F7FC;" d="M503.665,66.8v290.847H207.097L339.655,34.371h131.592C489.155,34.371,503.665,48.891,503.665,66.8z"
	/>
<polygon style="fill:#CCD8E5;" points="343.454,480.173 168.547,480.173 181.034,450.955 196.165,415.571 315.836,415.571 
	330.967,450.955 "/>
<polygon style="fill:#BAC6D1;" points="330.967,450.955 181.034,450.955 196.165,415.571 315.836,415.571 "/>
<path style="fill:#FFFFFF;" d="M255.999,106.205c-66.01,0-123.562,36.189-153.919,89.804
	c30.357,53.614,87.908,89.804,153.919,89.804s123.562-36.188,153.919-89.804C379.561,142.393,322.011,106.205,255.999,106.205z"/>
<path style="fill:#E6E6E6;" d="M255.999,132.867c60.373,0,113.657,30.283,145.544,76.473c2.977-4.313,5.783-8.753,8.374-13.331
	c-30.357-53.614-87.908-89.804-153.919-89.804s-123.562,36.189-153.919,89.804c2.592,4.578,5.397,9.019,8.374,13.331
	C142.344,163.15,195.626,132.867,255.999,132.867z"/>
<path style="fill:#616C77;" d="M336.948,163.82c0,44.638-36.184,80.822-80.81,80.822c-44.638,0-80.822-36.184-80.822-80.822
	c0-4.022,0.289-7.988,0.867-11.854c1.733-11.809,6.021-22.774,12.287-32.34c0.011-0.022,0.033-0.044,0.044-0.067v-0.011
	c15.453-6.388,31.995-10.643,49.282-12.409c1.011-0.1,2.011-0.189,3.022-0.278c1.011-0.089,2.022-0.167,3.033-0.233
	c1.011-0.078,2.033-0.133,3.055-0.189c0.056,0,0.122,0,0.189-0.011c0.889-0.044,1.778-0.078,2.677-0.111
	c1.178-0.044,2.355-0.067,3.544-0.089c0.9-0.011,1.789-0.022,2.689-0.022h0.122c0.822,0,1.644,0.011,2.466,0.022
	c0.633,0,1.266,0.022,1.911,0.033c0.744,0.022,1.489,0.044,2.233,0.067c1.378,0.056,2.755,0.122,4.122,0.2
	c0.2,0.011,0.389,0.022,0.589,0.044c0.655,0.044,1.3,0.089,1.955,0.133c0.811,0.067,1.611,0.133,2.411,0.2
	c1.255,0.111,2.5,0.233,3.733,0.367c0.089,0.011,0.189,0.022,0.278,0.033c0.044,0,0.078,0.011,0.122,0.011
	c0.433,0.056,0.878,0.1,1.311,0.156c0.855,0.1,1.711,0.211,2.555,0.322c0.855,0.122,1.711,0.244,2.566,0.378
	c0.667,0.1,1.344,0.2,2.011,0.311c1.689,0.267,3.366,0.555,5.033,0.889c0.7,0.122,1.389,0.267,2.089,0.411
	c2.066,0.411,4.122,0.867,6.155,1.366c9.01,2.177,17.753,5.055,26.174,8.554c6.244,9.543,10.521,20.486,12.254,32.262
	C336.658,155.832,336.948,159.797,336.948,163.82z"/>
<g>
	<path style="fill:#4A555E;" d="M336.092,151.966c-19.161-9.753-40.089-15.919-61.472-18.142
		c-21.798-2.266-44.012-0.508-65.156,5.274c-11.494,3.143-22.663,7.461-33.282,12.868c1.733-11.809,6.021-22.774,12.287-32.34
		c14.377-5.969,29.543-10.002,44.983-11.984c2.234-0.287,4.473-0.524,6.717-0.723c2.271-0.202,4.683-0.117,6.926-0.49
		c9.551-0.478,19.231-0.282,28.729,0.878c0.044,0,0.078,0.011,0.122,0.011c16.49,2.105,32.515,5.997,47.893,12.387
		C330.082,129.246,334.359,140.19,336.092,151.966z"/>
	<circle style="fill:#4A555E;" cx="256.129" cy="165.487" r="33.327"/>
</g>
<circle style="fill:#FFFFFF;" cx="288.958" cy="158.587" r="13.701"/>
<path d="M417.169,190.627c-32.84-58-94.596-94.031-161.169-94.031s-128.329,36.03-161.17,94.031c-1.442,2.546-1.442,5.664,0,8.211
	c32.841,58,94.597,94.031,161.17,94.031c21.965,0,43.464-3.813,63.901-11.332c4.318-1.589,6.531-6.378,4.943-10.696
	s-6.377-6.534-10.696-4.943c-18.587,6.839-38.15,10.306-58.146,10.306c-58.995,0-113.835-31.097-144.267-81.471
	c14.748-24.412,35.238-44.278,59.145-58.29c-2.566,8.394-3.895,17.174-3.895,26.102c0,49.16,39.994,89.154,89.154,89.154
	c49.153,0,89.143-39.994,89.143-89.154c0-8.863-1.308-17.58-3.836-25.913c23.769,14.002,44.142,33.8,58.824,58.103
	c-15.357,25.432-37.12,46.358-63.191,60.708c-4.032,2.219-5.501,7.286-3.283,11.317c2.22,4.032,7.286,5.5,11.317,3.283
	c30.169-16.604,55.086-41.225,72.058-71.202C418.611,196.291,418.611,193.174,417.169,190.627z M328.614,162.544
	c0,39.971-32.514,72.489-72.478,72.489c-39.971,0-72.489-32.519-72.489-72.489c0-13.27,3.584-26.143,10.386-37.403
	c19.447-7.717,40.426-11.878,61.967-11.878c21.661,0,42.757,4.207,62.296,12.007C325.055,136.483,328.614,149.312,328.614,162.544z"
	/>
<path d="M471.246,24.766H40.754C18.283,24.766,0,43.049,0,65.52v59.227c0,4.602,3.731,8.332,8.332,8.332s8.332-3.731,8.332-8.332
	V65.52c0-13.284,10.807-24.09,24.09-24.09h430.492c13.284,0,24.09,10.807,24.09,24.09v284.411h-52.21
	c-4.602,0-8.332,3.731-8.332,8.332s3.731,8.332,8.332,8.332h52.21v15.273c0,13.284-10.807,24.09-24.09,24.09h-155.41H196.164H40.754
	c-13.284,0-24.09-10.807-24.09-24.09v-15.273h398.688c4.602,0,8.332-3.731,8.332-8.332s-3.731-8.332-8.332-8.332H16.664V152.522
	c0-4.602-3.731-8.332-8.332-8.332S0,147.92,0,152.522v229.348c0,22.472,18.283,40.754,40.754,40.754H183.54l-20.494,47.945h-40.034
	c-4.602,0-8.332,3.731-8.332,8.332s3.731,8.332,8.332,8.332h265.975c4.602,0,8.332-3.731,8.332-8.332s-3.731-8.332-8.332-8.332
	h-40.034l-20.494-47.945h142.786c22.472,0,40.754-18.282,40.754-40.754V65.52C512,43.049,493.717,24.766,471.246,24.766z
	 M330.83,470.568H181.17l14.238-33.31h121.185L330.83,470.568z"/>
<path d="M253.972,376.221c-3.517,0.879-6.116,4.048-6.291,7.67c-0.364,7.534,9.106,11.629,14.33,6.172
	c2.663-2.782,3.078-7.177,0.913-10.385C261.01,376.772,257.341,375.379,253.972,376.221z"/>
</svg>