<?xml version="1.0" encoding="utf-8"?>
<!-- Uploaded to: SVG Repo, www.svgrepo.com, Generator: SVG Repo Mixer Tools -->
<svg width="800px" height="800px" viewBox="0 0 24 24" xmlns="http://www.w3.org/2000/svg" xmlns:xlink="http://www.w3.org/1999/xlink">
  <defs>
    <path id="gear-a" d="M5.46149909,9.95180254 C5.63620018,9.98346549 5.81616917,10 6,10 C7.65685425,10 9,8.65685425 9,7 C9,5.53349268 7.94774015,4.31275382 6.55705846,4.05162142 C7.45122895,1.18485705 9.22761962,0.0496486084 11.8862305,0.645996094 L13.2197266,1.76025391 L15.105957,1.76025391 L16.1420898,4.23486328 L14.359375,5.56933594 L14.359375,7.92236328 L16.1420898,10.2104492 L15.105957,11.8408203 L13.2197266,11.8408203 L11.2119141,12.9389648 L11.2119141,15.7773438 L8.80029297,17.2216797 L6.25390625,15.0439453 L4.68408203,15.0439453 L2.80810547,17.2216797 L0.621582031,15.7773437 L0.621582031,12.9389648 C3.01108587,13.7471942 4.62439155,12.7514734 5.46149909,9.95180254 Z M6,8 C5.44771525,8 5,7.55228475 5,7 C5,6.44771525 5.44771525,6 6,6 C6.55228475,6 7,6.44771525 7,7 C7,7.55228475 6.55228475,8 6,8 Z"/>
    <path id="gear-c" d="M2,7.86677785 C3.10540596,8.47421806 3.8545971,9.64961755 3.8545971,11 C3.8545971,12.3503825 3.10540596,13.5257819 2,14.1332221 C2.12113545,14.481215 2.26188408,14.8200223 2.42092213,15.1483205 C3.63198544,14.7963908 4.9926792,15.0978049 5.94743715,16.0525628 C6.9021951,17.0073208 7.20360923,18.3680146 6.85167954,19.5790779 C7.17997769,19.7381159 7.51878505,19.8788646 7.86677785,20 C8.47421806,18.894594 9.64961755,18.1454029 11,18.1454029 C12.3503825,18.1454029 13.5257819,18.894594 14.1332221,20 C14.481215,19.8788646 14.8200223,19.7381159 15.1483205,19.5790779 C14.7963908,18.3680146 15.0978049,17.0073208 16.0525628,16.0525628 C17.0073208,15.0978049 18.3680146,14.7963908 19.5790779,15.1483205 C19.7381159,14.8200223 19.8788646,14.481215 20,14.1332221 C18.894594,13.5257819 18.1454029,12.3503825 18.1454029,11 C18.1454029,9.64961755 18.894594,8.47421806 20,7.86677785 C19.8788646,7.51878505 19.7381159,7.17997769 19.5790779,6.85167954 C18.3680146,7.20360923 17.0073208,6.9021951 16.0525628,5.94743715 C15.0978049,4.9926792 14.7963908,3.63198544 15.1483205,2.42092213 C14.8200223,2.26188408 14.481215,2.12113545 14.1332221,2 C13.5257819,3.10540596 12.3503825,3.8545971 11,3.8545971 C9.64961755,3.8545971 8.47421806,3.10540596 7.86677785,2 C7.51878505,2.12113545 7.17997769,2.26188408 6.85167954,2.42092213 C7.20360923,3.63198544 6.9021951,4.9926792 5.94743715,5.94743715 C4.9926792,6.9021951 3.63198544,7.20360923 2.42092213,6.85167954 C2.26188408,7.17997769 2.12113545,7.51878505 2,7.86677785 Z M0.111165567,7.20927919 C0.257299843,6.78947081 0.427580293,6.3790103 0.620999583,5.97973986 C1.04619617,5.10201754 2.04247952,4.65897122 2.97902612,4.93112756 C3.52821874,5.09072053 4.12227919,4.94416799 4.53322359,4.53322359 C4.94416799,4.12227919 5.09072053,3.52821874 4.93112756,2.97902612 C4.65897122,2.04247952 5.10201754,1.04619617 5.97973986,0.620999583 C6.3790103,0.427580293 6.78947081,0.257299843 7.20927919,0.111165567 C8.13094072,-0.209662562 9.14957623,0.181533892 9.61956648,1.03681152 C9.89502663,1.53808769 10.4187709,1.8545971 11,1.8545971 C11.5812291,1.8545971 12.1049734,1.53808769 12.3804335,1.03681152 C12.8504238,0.181533892 13.8690593,-0.209662562 14.7907208,0.111165567 C15.2105292,0.257299843 15.6209897,0.427580293 16.0202601,0.620999583 C16.8979825,1.04619617 17.3410288,2.04247952 17.0688724,2.97902612 C16.9092795,3.52821874 17.055832,4.12227919 17.4667764,4.53322359 C17.8777208,4.94416799 18.4717813,5.09072053 19.0209739,4.93112756 C19.9575205,4.65897122 20.9538038,5.10201754 21.3790004,5.97973986 C21.5724197,6.3790103 21.7427002,6.78947081 21.8888344,7.20927919 C22.2096626,8.13094072 21.8184661,9.14957623 20.9631885,9.61956648 C20.4619123,9.89502663 20.1454029,10.4187709 20.1454029,11 C20.1454029,11.5812291 20.4619123,12.1049734 20.9631885,12.3804335 C21.8184661,12.8504238 22.2096626,13.8690593 21.8888344,14.7907208 C21.7427002,15.2105292 21.5724197,15.6209897 21.3790004,16.0202601 C20.9538038,16.8979825 19.9575205,17.3410288 19.0209739,17.0688724 C18.4717813,16.9092795 17.8777208,17.055832 17.4667764,17.4667764 C17.055832,17.8777208 16.9092795,18.4717813 17.0688724,19.0209739 C17.3410288,19.9575205 16.8979825,20.9538038 16.0202601,21.3790004 C15.6209897,21.5724197 15.2105292,21.7427002 14.7907208,21.8888344 C13.8690593,22.2096626 12.8504238,21.8184661 12.3804335,20.9631885 C12.1049734,20.4619123 11.5812291,20.1454029 11,20.1454029 C10.4187709,20.1454029 9.89502663,20.4619123 9.61956648,20.9631885 C9.14957623,21.8184661 8.13094072,22.2096626 7.20927919,21.8888344 C6.78947081,21.7427002 6.3790103,21.5724197 5.97973986,21.3790004 C5.10201754,20.9538038 4.65897122,19.9575205 4.93112756,19.0209739 C5.09072053,18.4717813 4.94416799,17.8777208 4.53322359,17.4667764 C4.12227919,17.055832 3.52821874,16.9092795 2.97902612,17.0688724 C2.04247952,17.3410288 1.04619617,16.8979825 0.620999583,16.0202601 C0.427580293,15.6209897 0.257299843,15.2105292 0.111165567,14.7907208 C-0.209662562,13.8690593 0.181533892,12.8504238 1.03681152,12.3804335 C1.53808769,12.1049734 1.8545971,11.5812291 1.8545971,11 C1.8545971,10.4187709 1.53808769,9.89502663 1.03681152,9.61956648 C0.181533892,9.14957623 -0.209662562,8.13094072 0.111165567,7.20927919 Z M11,15 C13.209139,15 15,13.209139 15,11 C15,8.790861 13.209139,7 11,7 C8.790861,7 7,8.790861 7,11 C7,13.209139 8.790861,15 11,15 Z M11,13 C9.8954305,13 9,12.1045695 9,11 C9,9.8954305 9.8954305,9 11,9 C12.1045695,9 13,9.8954305 13,11 C13,12.1045695 12.1045695,13 11,13 Z"/>
  </defs>
  <g fill="none" fill-rule="evenodd" transform="translate(1 1)">
    <g transform="translate(5 4)">
      <mask id="gear-b" fill="#ffffff">
        <use xlink:href="#gear-a"/>
      </mask>
      <use fill="#D8D8D8" xlink:href="#gear-a"/>
      <g fill="#FFA0A0" mask="url(#gear-b)">
        <rect width="24" height="24" transform="translate(-6 -5)"/>
      </g>
    </g>
    <mask id="gear-d" fill="#ffffff">
      <use xlink:href="#gear-c"/>
    </mask>
    <use fill="#000000" fill-rule="nonzero" xlink:href="#gear-c"/>
    <g fill="#7600FF" mask="url(#gear-d)">
      <rect width="24" height="24" transform="translate(-1 -1)"/>
    </g>
  </g>
</svg>