<?xml version="1.0" encoding="utf-8"?>
<!-- Uploaded to: SVG Repo, www.svgrepo.com, Generator: SVG Repo Mixer Tools -->
<svg width="800px" height="800px" viewBox="0 -1.35 65.777 65.777" xmlns="http://www.w3.org/2000/svg">
  <g id="Group_90" data-name="Group 90" transform="translate(-497.476 -426.926)">
    <g id="Group_89" data-name="Group 89">
      <path id="Path_221" data-name="Path 221" d="M542.339,482.211c-.16-.748-4.568.371-4.858,1.82a110.838,110.838,0,0,0-34.972,0c-.289-1.449-4.7-2.568-4.858-1.82a13.163,13.163,0,0,0,0,4.25.5.5,0,0,0,.049.092c.725,1.924,10.428,3.447,22.295,3.447s21.57-1.523,22.295-3.447a.446.446,0,0,0,.049-.092A13.162,13.162,0,0,0,542.339,482.211Z" fill="#bfc8d5"/>
      <path id="Path_222" data-name="Path 222" d="M542.339,482.32c0,2.033-10,3.68-22.344,3.68s-22.344-1.647-22.344-3.68,10-3.677,22.344-3.677S542.339,480.289,542.339,482.32Z" fill="#dce2e9"/>
    </g>
    <path id="Path_223" data-name="Path 223" d="M517.915,456.268A23.981,23.981,0,0,0,506.1,459.25c-1.246.853-1.928,21.813-.414,22.77s7.8,1.6,14.31,1.6,12.8-.641,14.313-1.6S519.415,456.428,517.915,456.268Z" fill="#5a6271"/>
    <path id="Path_224" data-name="Path 224" d="M551.923,437.316c.51-1.117-.563-3-1.127-3.859s-1.865-2.592-3.094-2.57-39.724,19.519-41.332,20.574c-3.215,2.111,3.629,13.035,7.07,10.775C515.054,461.178,551.415,438.435,551.923,437.316Z" fill="#dce2e9"/>
    <path id="Path_225" data-name="Path 225" d="M550.888,434.557c-1.867,1.845-17.84,10.158-31.008,19.377a11.224,11.224,0,0,1,.443,1.685c13.709-9.6,30.28-18.347,30.666-19.189A2.612,2.612,0,0,0,550.888,434.557Z" fill="#bfc8d5"/>
    <path id="Path_226" data-name="Path 226" d="M513.833,450.467c12.494-7.686,33.272-16.463,35.875-17.508a2.605,2.605,0,0,0-1.678-.838c-.984.018-22.252,9.082-35.459,17.2A8.825,8.825,0,0,1,513.833,450.467Z" fill="#dce2e9" style="mix-blend-mode: screen;isolation: isolate"/>
    <circle id="Ellipse_1" data-name="Ellipse 1" cx="10" cy="10" r="10" transform="translate(502.712 447.449)" fill="#ffc52f"/>
    <path id="Path_227" data-name="Path 227" d="M512.712,465.449a10,10,0,0,1-9.949-9,10,10,0,1,0,19.9,0A10,10,0,0,1,512.712,465.449Z" fill="#f7971d"/>
    <path id="Path_228" data-name="Path 228" d="M544.858,449.1V431.727a4.8,4.8,0,1,1,9.6,0V449.1a4.8,4.8,0,0,1-9.6,0Z" fill="#ffc52f"/>
    <path id="Path_229" data-name="Path 229" d="M544.858,446.949V449.1a4.762,4.762,0,0,0,1.7,3.632,7.512,7.512,0,0,1,6.207,0,4.763,4.763,0,0,0,1.7-3.632v-2.149a13.389,13.389,0,0,0-9.6,0Z" fill="#f7971d"/>
    <path id="Path_230" data-name="Path 230" d="M555.251,475.172a2.967,2.967,0,0,1-1.285-.293,3,3,0,0,1-1.422-4l4.684-9.852a7.6,7.6,0,0,0-15.139,0l4.685,9.852a3,3,0,0,1-5.419,2.576l-5-10.516a2.984,2.984,0,0,1-.291-1.287,13.594,13.594,0,1,1,27.189,0,3,3,0,0,1-.289,1.287l-5,10.516A3,3,0,0,1,555.251,475.172Z" fill="#dce2e9"/>
    <path id="Path_231" data-name="Path 231" d="M519.19,451.949c0,1.828-2.9,3.311-6.478,3.311s-6.479-1.483-6.479-3.311,2.9-3.314,6.479-3.314S519.19,450.119,519.19,451.949Z" fill="#ffc52f" opacity="0.5" style="mix-blend-mode: screen;isolation: isolate"/>
    <path id="Path_232" data-name="Path 232" d="M553.043,429.719c0,.955-1.516,1.73-3.386,1.73s-3.384-.775-3.384-1.73,1.516-1.733,3.384-1.733S553.043,428.762,553.043,429.719Z" fill="#ffc52f" opacity="0.5" style="mix-blend-mode: screen;isolation: isolate"/>
  </g>
</svg>