<svg width="30px" height="30px" viewBox="-4 0 32 32" xmlns="http://www.w3.org/2000/svg" xmlns:xlink="http://www.w3.org/1999/xlink" xmlns:sketch="http://www.bohemiancoding.com/sketch/ns">
    <g fill="#FFF">
        <path d="M12,9 C10.343,9 9,10.343 9,12 C9,13.657 10.343,15 12,15 C13.657,15 15,13.657 15,12 C15,10.343 13.657,9 12,9 Z M12,17 C9.239,17 7,14.762 7,12 C7,9.238 9.239,7 12,7 C14.761,7 17,9.238 17,12 C17,14.762 14.761,17 12,17 Z M12,0 C5.373,0 0,5.373 0,12 C0,17.018 10.005,32.011 12,32 C13.964,32.011 24,16.95 24,12 C24,5.373 18.627,0 12,0 Z"></path>
    </g>
</svg>