<?xml version="1.0" encoding="iso-8859-1"?>
<!-- Uploaded to: SVG Repo, www.svgrepo.com, Generator: SVG Repo Mixer Tools -->
<svg height="800px" width="800px" version="1.1" id="Layer_1" xmlns="http://www.w3.org/2000/svg" xmlns:xlink="http://www.w3.org/1999/xlink" 
	 viewBox="0 0 502 502" xml:space="preserve">
<g>
	<g>
		<path style="fill:#E6E6E6;" d="M395.912,235.63c0,0-78.947-103.082-78.947-146.683c0-0.272,0.018-0.54,0.021-0.812
			c-24.658-10.179-51.674-15.808-80.008-15.808c-115.889,0-209.836,93.947-209.836,209.836S121.088,492,236.977,492
			s209.836-93.947,209.836-209.836c0-32.195-7.26-62.69-20.217-89.954C410.188,216.988,395.912,235.63,395.912,235.63z"/>
		<path style="fill:#DB4949;" d="M395.912,10c-43.329,0-78.489,34.91-78.927,78.135c-0.003,0.272-0.021,0.54-0.021,0.812
			c0,43.601,78.947,146.683,78.947,146.683s14.276-18.642,30.685-43.421c22.181-33.493,48.262-78.201,48.262-103.262
			C474.859,45.346,439.513,10,395.912,10z"/>
	</g>
	<g>
		<circle style="fill:#E6E6E6;" cx="395.912" cy="88.947" r="44.379"/>
		<g>
			<path d="M101.934,292.164h23.893c5.523,0,10-4.477,10-10s-4.477-10-10-10h-23.893c-5.523,0-10,4.477-10,10
				S96.411,292.164,101.934,292.164z"/>
			<path d="M443.838,183.982c27.22-43.057,41.021-75.031,41.021-95.035C484.859,39.901,444.958,0,395.912,0
				c-43.999,0-80.631,32.114-87.707,74.132c-22.855-7.833-46.762-11.804-71.228-11.804c-58.721,0-113.926,22.867-155.448,64.388
				c-41.521,41.522-64.389,96.728-64.389,155.448c0,58.721,22.867,113.926,64.389,155.448C123.051,479.133,178.257,502,236.978,502
				c58.72,0,113.926-22.867,155.447-64.389c41.522-41.521,64.389-96.727,64.389-155.448c0-31.054-6.337-60.997-18.817-89.088
				C439.929,190.113,441.881,187.078,443.838,183.982z M395.912,20c38.018,0,68.947,30.93,68.947,68.947
				c0,29.434-44.246,96.129-68.948,129.963c-24.703-33.828-68.946-100.511-68.946-129.963C326.964,50.93,357.894,20,395.912,20z
				 M305.834,272.164H190.232c-5.523,0-10,4.477-10,10s4.477,10,10,10h115.602c-0.539,30.534-3.53,58.486-8.236,83.01
				c-19.515-5.584-39.89-8.479-60.621-8.479c-20.738,0-41.11,2.896-60.621,8.477c-5.215-27.177-8.327-58.562-8.327-93.008
				c0-34.027,3.038-65.064,8.139-92.012c19.554,5.607,39.984,8.521,60.81,8.521c13.896,0,27.806-1.307,41.343-3.883
				c5.425-1.033,8.986-6.268,7.954-11.694c-1.033-5.425-6.271-8.985-11.694-7.954c-12.307,2.343-24.958,3.531-37.603,3.531
				c-19.391,0-38.408-2.767-56.575-8.11c13.434-54.801,35.762-88.234,56.575-88.234C268.657,82.328,303.849,159.779,305.834,272.164
				z M312.289,401.388c19.527,7.943,37.799,18.993,54.127,32.894c-24.716,21.062-54.604,36.217-87.47,43.27
				c8.655-11.02,16.491-25.615,23.216-43.49C305.971,423.937,309.354,412.994,312.289,401.388z M236.978,482
				c-20.687,0-42.87-33.034-56.328-87.247c18.106-5.305,37.043-8.059,56.328-8.059c19.279,0,38.216,2.758,56.327,8.065
				C279.845,448.968,257.664,482,236.978,482z M171.793,434.062c6.725,17.875,14.561,32.47,23.216,43.49
				c-32.868-7.053-62.759-22.21-87.476-43.274c16.33-13.905,34.604-24.951,54.131-32.894
				C164.6,412.991,167.983,423.935,171.793,434.062z M161.426,163.906c-19.681-8.035-38.071-19.24-54.496-33.345
				c24.832-21.332,54.945-36.675,88.08-43.785c-8.655,11.02-16.491,25.615-23.216,43.49
				C167.878,140.67,164.416,151.942,161.426,163.906z M37.391,292.164h30.263c5.523,0,10-4.477,10-10s-4.477-10-10-10H37.391
				c2.447-49.405,22.917-94.146,54.959-127.768c19.337,16.92,41.211,30.138,64.689,39.296c-5.887,30.128-9.01,63.691-9.01,98.472
				c0,35.158,3.191,69.072,9.202,99.451c-23.328,9.076-45.081,22.164-64.327,38.886C60.547,386.815,39.852,341.849,37.391,292.164z
				 M381.051,420.5c-19.243-16.718-40.999-29.807-64.328-38.884c5.439-27.488,8.568-57.872,9.113-89.453h110.726
				C434.102,341.849,413.408,386.815,381.051,420.5z M436.56,272.164H325.837c-0.924-53.484-9.246-103.548-23.675-141.898
				c-6.735-17.9-14.583-32.51-23.253-43.535c9.659,2.063,19.153,4.846,28.444,8.344c2.403,20.153,16.039,50.005,40.633,88.908
				c19.75,31.241,39.17,56.661,39.987,57.728c1.892,2.471,4.827,3.92,7.939,3.92s6.047-1.449,7.939-3.92
				c0.54-0.704,9.196-12.035,20.7-28.645C431.549,232.008,435.569,251.796,436.56,272.164z"/>
			<path d="M450.29,88.947c0-29.985-24.394-54.379-54.378-54.379s-54.378,24.394-54.378,54.379
				c0,29.984,24.394,54.378,54.378,54.378S450.29,118.932,450.29,88.947z M361.533,88.947c0-18.957,15.422-34.379,34.378-34.379
				s34.378,15.422,34.378,34.379s-15.422,34.378-34.378,34.378S361.533,107.904,361.533,88.947z"/>
		</g>
	</g>
</g>
</svg>