<?xml version="1.0" encoding="utf-8"?>
<!-- Uploaded to: SVG Repo, www.svgrepo.com, Generator: SVG Repo Mixer Tools -->
<svg fill="#000000" width="800px" height="800px" viewBox="0 0 32 32" version="1.1" xmlns="http://www.w3.org/2000/svg">
<title>rocket-launch</title>
<path d="M31.246 1.914c-0.045-0.633-0.555-1.134-1.189-1.163l-0.003-0c-6.221-0.261-11.757 2.378-16.697 7.999h-9.358c-0.583 0-1.072 0.399-1.211 0.939l-0.002 0.009-2 8c-0.024 0.091-0.037 0.195-0.037 0.303 0 0.69 0.56 1.25 1.25 1.25 0 0 0 0 0 0h4.488c-0.204 0.401-0.41 0.788-0.612 1.203-0.080 0.16-0.126 0.348-0.126 0.547 0 0.345 0.14 0.658 0.366 0.884l4 4c0.226 0.226 0.539 0.365 0.883 0.365 0.206 0 0.4-0.050 0.572-0.138l-0.007 0.003c0.398-0.202 0.791-0.409 1.186-0.614v4.655c0.001 0.69 0.56 1.249 1.25 1.25h0c0.001 0 0.002 0 0.004 0 0.106 0 0.209-0.014 0.308-0.039l-0.008 0.002 8-2c0.548-0.14 0.947-0.63 0.947-1.212 0-0 0-0 0-0v0-9.349c5.114-4.274 8.502-9.596 7.996-16.893zM3.601 16.75l1.375-5.5h6.362c-1.166 1.573-2.329 3.37-3.381 5.239l-0.135 0.261zM20.75 27.18l-5.5 1.375v-4.395c2.163-1.196 3.96-2.331 5.689-3.554l-0.189 0.127zM11.241 23.473l-2.725-2.723c5.793-11.584 12.442-17.329 20.28-17.514 0.061 9.119-6.953 14.768-17.556 20.236zM23 5.75c-1.795 0-3.25 1.455-3.25 3.25s1.455 3.25 3.25 3.25c1.795 0 3.25-1.455 3.25-3.25v0c-0.002-1.794-1.456-3.248-3.25-3.25h-0zM23 9.75c-0.414 0-0.75-0.336-0.75-0.75s0.336-0.75 0.75-0.75c0.414 0 0.75 0.336 0.75 0.75v0c-0 0.414-0.336 0.75-0.75 0.75h-0zM4.482 23.752l-0.482-0.002c-0 0-0 0-0.001 0-0.523 0-0.97 0.321-1.157 0.777l-0.003 0.008-2 5c-0.057 0.138-0.090 0.297-0.090 0.465 0 0.69 0.56 1.25 1.25 1.25v0c0 0 0.001 0 0.001 0 0.166 0 0.325-0.033 0.47-0.093l-0.008 0.003 5.004-1.996c0.446-0.181 0.76-0.6 0.785-1.095l0-0.003c0.021-0.398 0.048-0.744 0.070-1.041 0.062-0.232 0.098-0.498 0.098-0.772 0-0.665-0.209-1.281-0.565-1.786l0.007 0.010c-0.655-0.713-1.565-0.717-3.379-0.725zM5.83 26.832c-0.008 0.096-0.016 0.197-0.023 0.303l-1.564 0.625 0.603-1.506c0.388 0.004 0.757 0.008 1.024 0.023-0.009 0.17-0.024 0.367-0.039 0.555z"></path>
</svg>