<?xml version="1.0" encoding="utf-8"?>

<!DOCTYPE svg PUBLIC "-//W3C//DTD SVG 1.1//EN" "http://www.w3.org/Graphics/SVG/1.1/DTD/svg11.dtd">
<!-- Uploaded to: SVG Repo, www.svgrepo.com, Generator: SVG Repo Mixer Tools -->
<svg height="800px" width="800px" version="1.1" id="_x32_" xmlns="http://www.w3.org/2000/svg" xmlns:xlink="http://www.w3.org/1999/xlink" 
	 viewBox="0 0 512 512"  xml:space="preserve">
<style type="text/css">
	.st0{fill:#139ECA;}
</style>
<g>
	<path class="st0" d="M485.75,475.54V252.367H358.838V134.2h-43.29V95.887h-13.124V62.716h-34.472V10.202h-15.307v52.514h-34.291
		v33.171h-13.14V134.2h-43.291v61.737H26.264V475.54H0v26.258h32.826h135.658h13.124h157.542h13.124h126.913H512V475.54H485.75z
		 M90.797,428.491H71.124v-19.68h19.673V428.491z M90.797,386.844H71.124v-19.68h19.673V386.844z M90.797,345.197H71.124v-19.679
		h19.673V345.197z M90.797,303.544H71.124v-19.68h19.673V303.544z M90.797,261.89H71.124v-19.68h19.673V261.89z M118.003,477.932
		H92.501v-25.517h25.502V477.932z M140.038,428.491h-19.673v-19.68h19.673V428.491z M140.038,386.844h-19.673v-19.68h19.673V386.844
		z M140.038,345.197h-19.673v-19.679h19.673V345.197z M140.038,303.544h-19.673v-19.68h19.673V303.544z M140.038,261.89h-19.673
		v-19.68h19.673V261.89z M250.536,180.876h19.687v19.672h-19.687V180.876z M250.536,222.515h19.687v19.687h-19.687V222.515z
		 M250.536,264.177h19.687v19.672h-19.687V264.177z M250.536,305.815h19.687v19.687h-19.687V305.815z M250.536,347.469h19.687v19.68
		h-19.687V347.469z M250.536,389.123h19.687v19.68h-19.687V389.123z M227.545,408.803h-19.672v-19.68h19.672V408.803z
		 M227.545,367.149h-19.672v-19.68h19.672V367.149z M227.545,325.503h-19.672v-19.687h19.672V325.503z M227.545,283.849h-19.672
		v-19.672h19.672V283.849z M227.545,242.202h-19.672v-19.687h19.672V242.202z M227.545,200.548h-19.672v-19.672h19.672V200.548z
		 M273.631,477.932h-25.517v-43.373h25.517V477.932z M312.901,408.803h-19.688v-19.68h19.688V408.803z M312.901,367.149h-19.688
		v-19.68h19.688V367.149z M312.901,325.503h-19.688v-19.687h19.688V325.503z M312.901,283.849h-19.688v-19.672h19.688V283.849z
		 M312.901,242.202h-19.688v-19.687h19.688V242.202z M312.901,200.548h-19.688v-19.672h19.688V200.548z M420.575,475.54h-25.517
		v-33.484h25.517V475.54z M439.799,413.43H374.16v-11.451h65.639V413.43z M439.799,379.908H374.16v-11.451h65.639V379.908z
		 M439.799,346.386H374.16v-11.443h65.639V346.386z M439.799,312.857H374.16v-11.45h65.639V312.857z"/>
</g>
</svg>