<?xml version="1.0" encoding="utf-8"?><!-- Uploaded to: SVG Repo, www.svgrepo.com, Generator: SVG Repo Mixer Tools -->
<svg version="1.1" id="Uploaded to svgrepo.com" xmlns="http://www.w3.org/2000/svg" xmlns:xlink="http://www.w3.org/1999/xlink" 
	 width="800px" height="800px" viewBox="0 0 32 32" xml:space="preserve">
<style type="text/css">
	.stone_een{fill:#3CA877;}
</style>
<path class="stone_een" d="M25,17c-1.323,0-2.488,0.651-3.216,1.641L17.031,16l4.753-2.641C22.512,14.349,23.676,15,25,15
	c2.209,0,4-1.791,4-4c0-2.209-1.791-4-4-4c-2.209,0-4,1.791-4,4c0,0.526,0.108,1.026,0.292,1.487L16.5,15.15v-5.2
	C18.47,9.701,20,8.038,20,6c0-2.209-1.791-4-4-4c-2.209,0-4,1.791-4,4c0,2.038,1.53,3.701,3.5,3.95v5.2l-4.793-2.663
	C10.892,12.026,11,11.526,11,11c0-2.209-1.791-4-4-4c-2.209,0-4,1.791-4,4c0,2.209,1.791,4,4,4c1.324,0,2.488-0.651,3.216-1.641
	L14.969,16l-4.754,2.641C9.488,17.651,8.324,17,7,17c-2.209,0-4,1.791-4,4c0,2.209,1.791,4,4,4c2.209,0,4-1.791,4-4
	c0-0.526-0.108-1.026-0.293-1.487L15.5,16.85v5.2C13.53,22.299,12,23.962,12,26c0,2.209,1.791,4,4,4c2.209,0,4-1.791,4-4
	c0-2.038-1.53-3.701-3.5-3.95v-5.2l4.793,2.663C21.108,19.973,21,20.473,21,21c0,2.209,1.791,4,4,4c2.209,0,4-1.791,4-4
	C29,18.791,27.209,17,25,17z"/>
</svg>