<?xml version="1.0" encoding="utf-8"?><!-- Uploaded to: SVG Repo, www.svgrepo.com, Generator: SVG Repo Mixer Tools -->
<svg width="800px" height="800px" viewBox="0 0 100 100" xmlns="http://www.w3.org/2000/svg" xmlns:xlink="http://www.w3.org/1999/xlink" aria-hidden="true" role="img" class="iconify iconify--gis" preserveAspectRatio="xMidYMid meet"><path d="M13.383 0v3.125h6.898l-7.203 7.494v3.053h12.233v-3.125h-7.204l7.204-7.494V0H13.383zm26.816 0l-9.998 15.299h7.5v50.234l-5.293 4.41l-.48-5.377l-3.842 3.2l.48 5.379l-7.128 5.939l-.481-5.377l-3.842 3.201l.483 5.377l-7.446 6l-4.8-5.762L0 100l18.154-2.113l-4.802-5.762l28.644-23.69h42.705v7.5L100 65.938L84.701 55.937v7.5h-13.44v-7h-5v7h-9.28v-7h-5v7H42.7v-9.28h7v-5h-7v-9.281h7v-5h-7v-9.28h7v-5h-7V15.3h7.5L40.2 0zM0 55.916l6.092 14.197l-.123.377c-.187.61-.451 1.036-.793 1.272c-.334.236-.871.353-1.612.353H2.197v2.87h2.528c1.261 0 2.274-.306 3.039-.917c.773-.602 1.45-1.665 2.027-3.187l5.748-14.965h-4.37l-3.124 9.277l-3.674-9.277H0zm84.875 22.412l4.932 6.678L84.63 92h4.627l3.039-4.32L95.373 92H100l-5.176-7.02l4.932-6.652h-4.627l-2.832 4.053l-2.795-4.053h-4.627z" fill="#F96843" fill-rule="evenodd"></path></svg>