<?xml version="1.0" encoding="utf-8"?>

<!-- Uploaded to: SVG Repo, www.svgrepo.com, Generator: SVG Repo Mixer Tools -->
<svg version="1.1" id="Uploaded to svgrepo.com" xmlns="http://www.w3.org/2000/svg" xmlns:xlink="http://www.w3.org/1999/xlink" 
	 width="800px" height="800px" viewBox="0 0 32 32" xml:space="preserve">
<style type="text/css">
	.duotone_een{fill:#F96843;}
	.duotone_twee{fill:#F96843;}
	.st0{fill:none;stroke:#555E5E;stroke-width:2;stroke-linecap:round;stroke-miterlimit:10;}
	.st1{fill:#F96843;}
</style>
<g>
	<path class="duotone_een" d="M13,15c1.102,0,2.064,0.594,2.586,1.478c0.18,0.305,0.648,0.305,0.828,0
		C16.936,15.594,17.898,15,19,15s2.064,0.594,2.586,1.478c0.18,0.305,0.648,0.305,0.828,0C22.936,15.594,23.898,15,25,15
		c1.307,0,2.518,1.609,2.518,1.609c0.165,0.22,0.331,0.177,0.369-0.096c0,0,0.113-0.827,0.113-1.513c0-6.627-5.373-11-12-11
		S4,8.373,4,15c0,0.686,0.113,1.513,0.113,1.513c0.037,0.272,0.203,0.316,0.369,0.096C4.482,16.609,5.693,15,7,15
		c1.102,0,2.064,0.594,2.586,1.478c0.18,0.305,0.648,0.305,0.828,0C10.936,15.594,11.898,15,13,15z"/>
	<g>
		<g>
			<path class="duotone_twee" d="M16,17.707c-0.376,0-0.731-0.147-1-0.391V23c0,0.334-0.097,2-2,2c-1.826,0-1.992-1.537-2-2
				c0-0.552-0.447-1-1-1s-1,0.448-1,1c0,1.608,1.065,4,4,4s4-2.392,4-4v-5.684C16.731,17.561,16.376,17.707,16,17.707z"/>
		</g>
		<g>
			<path class="duotone_twee" d="M16,17.707c-0.376,0-0.731-0.147-1-0.391V23c0,0.334-0.097,2-2,2c-1.826,0-1.992-1.537-2-2
				c0-0.552-0.447-1-1-1s-1,0.448-1,1c0,1.608,1.065,4,4,4s4-2.392,4-4v-5.684C16.731,17.561,16.376,17.707,16,17.707z"/>
		</g>
	</g>
</g>
</svg>