<?xml version="1.0" encoding="utf-8"?><!-- Uploaded to: SVG Repo, www.svgrepo.com, Generator: SVG Repo Mixer Tools -->
<svg version="1.1" id="designs" xmlns="http://www.w3.org/2000/svg" xmlns:xlink="http://www.w3.org/1999/xlink" 
	 width="800px" height="800px" viewBox="0 0 32 32" xml:space="preserve">
<style type="text/css">
	.sketchy_een{fill:#F96843;}"
</style>
<path class="sketchy_een" d="M28.847,16.455c-0.01-0.706-0.02-1.412-0.031-2.12c-0.012-0.751-0.035-1.504-0.039-2.255
	c-0.004-0.743-0.033-1.484-0.049-2.225c-0.016-0.767-0.004-1.533-0.006-2.3c-0.002-0.692-0.006-1.385-0.006-2.075
	c-0.002-0.739,0.01-1.48-0.043-2.22c-0.016-0.217-0.076-0.407-0.235-0.565c-0.017-0.017-0.041-0.025-0.06-0.04
	c-0.105-0.194-0.284-0.349-0.51-0.42c-0.203-0.065-0.426-0.068-0.64-0.074c-0.19-0.006-0.381-0.02-0.571-0.033
	c-0.362-0.029-0.726-0.043-1.087-0.059C24.901,2.038,24.232,2,23.562,2c-0.118,0-0.236,0.001-0.354,0.004
	c-0.804,0.016-1.608,0.035-2.411,0.047c-0.861,0.012-1.723,0.029-2.585,0.062c-1.692,0.065-3.389,0.305-5.034,0.708
	c-0.843,0.205-1.67,0.483-2.433,0.906C9.992,4.147,9.28,4.632,8.621,5.19C8.023,5.694,7.454,6.252,6.949,6.848
	C6.398,7.501,5.926,8.213,5.455,8.925c-0.473,0.716-0.849,1.482-1.16,2.282c-0.147,0.377-0.231,0.782-0.321,1.179
	c-0.094,0.411-0.211,0.816-0.305,1.224c-0.127,0.542-0.204,1.102-0.255,1.656c-0.116,0.148-0.196,0.327-0.205,0.528
	c-0.002,0.076-0.002,0.151,0.002,0.227c0.01,0.147,0.041,0.383,0.133,0.507c0.09,0.123,0.172,0.24,0.293,0.336
	c0.158,0.125,0.282,0.209,0.475,0.276c0.323,0.111,0.671,0.125,1.009,0.143c0.395,0.018,0.794,0.01,1.191,0.006
	c0.259-0.004,0.518-0.008,0.777-0.014c-0.032,0.744-0.088,1.486-0.118,2.23c-0.005,0.136-0.011,0.272-0.017,0.408
	c-0.159,0.013-0.319,0.022-0.48,0.021c-0.385-0.002-0.776-0.01-1.158,0.037c-0.225,0.027-0.446,0.057-0.663,0.119
	c-0.487,0.143-0.864,0.518-1.081,0.97c-0.223,0.469-0.293,0.986-0.331,1.5c-0.059,0.812-0.086,1.627-0.09,2.441
	c-0.002,0.817,0.004,1.641,0.123,2.45c0.047,0.331,0.1,0.665,0.192,0.986c0.078,0.28,0.203,0.542,0.395,0.763
	c0.155,0.18,0.358,0.321,0.567,0.432c0.381,0.203,0.812,0.27,1.238,0.315c0.366,0.037,0.735,0.035,1.101,0.023
	c0.28-0.01,0.561-0.027,0.843-0.006c0.221,0.016,0.44,0.031,0.663,0.024c0.192-0.008,0.377-0.01,0.567,0.008
	c0.191,0.017,0.382-0.029,0.572-0.063c0.103-0.011,0.207-0.024,0.308-0.05c0.166-0.041,0.331-0.119,0.477-0.213
	c0.327-0.207,0.569-0.46,0.79-0.776c0.272-0.393,0.356-0.874,0.403-1.34c0.039-0.387,0.033-0.78,0.018-1.17
	c-0.025-0.72-0.053-1.437-0.068-2.157c-0.016-0.761-0.063-1.521-0.082-2.284c-0.012-0.38-0.051-0.794-0.278-1.111
	c-0.274-0.385-0.737-0.651-1.207-0.728C9.577,20.073,9.38,20.05,9.18,20.052c-0.162,0-0.325,0.021-0.485,0.029
	c-0.077,0.003-0.153,0.007-0.229,0.009c0.004-0.075,0.009-0.149,0.013-0.224c0.046-0.875,0.155-1.745,0.21-2.62
	c0.032,0,0.063-0.001,0.095-0.002c1.699-0.016,3.399-0.033,5.098-0.026c1.692,0.006,3.385,0.018,5.077,0.031
	c1.643,0.012,3.284,0.006,4.926,0.02c0.655,0.004,1.31,0.02,1.965,0.037c0.62,0.018,1.242,0.018,1.862,0.057
	c0.185,0.011,0.349-0.066,0.488-0.176C28.559,17.132,28.853,16.829,28.847,16.455z M5.718,28.308
	c-0.154-0.028-0.306-0.063-0.452-0.114c-0.037-0.02-0.073-0.041-0.109-0.063c-0.005-0.005-0.011-0.011-0.016-0.016
	c-0.113-0.342-0.152-0.717-0.197-1.074c0.006,0.043,0.012,0.087,0.018,0.13c-0.1-0.759-0.067-1.527-0.076-2.292
	c-0.009-0.821,0.012-1.642,0.096-2.459c0.028-0.168,0.064-0.333,0.117-0.495c0.024-0.047,0.05-0.093,0.078-0.137
	c0.09-0.026,0.18-0.046,0.272-0.062c0.329-0.036,0.657-0.052,0.99-0.063c0.148-0.005,0.297-0.019,0.445-0.031
	c-0.004,0.096-0.009,0.192-0.012,0.288c-0.027,0.816-0.033,1.631-0.047,2.447c-0.012,0.753-0.045,1.506-0.067,2.259
	c-0.017,0.569-0.028,1.138-0.025,1.706C6.393,28.341,6.056,28.342,5.718,28.308z M8.695,21.702c0.245-0.007,0.487-0.029,0.731-0.014
	c0.05,0.011,0.099,0.024,0.148,0.04c0.01,0.005,0.021,0.011,0.031,0.017c0.038,0.412,0.054,0.83,0.072,1.24
	c0.025,0.544,0.066,1.087,0.09,1.631c0.045,1.004,0.176,2.021,0.078,3.026c-0.021,0.103-0.047,0.202-0.081,0.3
	c-0.035,0.069-0.075,0.135-0.118,0.199c-0.048,0.054-0.099,0.105-0.153,0.154c-0.045,0.031-0.092,0.06-0.14,0.086
	c-0.036,0.01-0.071,0.018-0.108,0.024c-0.05,0.006-0.1,0.013-0.151,0.02c-0.061,0.006-0.12,0.01-0.18,0.007
	c-0.203-0.028-0.405-0.049-0.611-0.054c-0.016,0-0.032-0.003-0.049-0.004c-0.001-1.234,0.085-2.467,0.088-3.702
	c0.002-0.802,0-1.604,0.018-2.406c0.004-0.184,0.015-0.367,0.023-0.551C8.487,21.714,8.591,21.706,8.695,21.702z M25.446,15.708
	c-0.786-0.016-1.574-0.012-2.36-0.012c-1.67,0-3.34-0.002-5.01,0.012c-1.696,0.014-3.389-0.021-5.085-0.035
	c-1.688-0.014-3.378-0.029-5.067-0.018c-0.536,0.004-1.074,0.002-1.609-0.004c-0.467-0.003-0.931-0.01-1.394-0.052
	c0.037-0.094,0.056-0.194,0.064-0.302C5,15.07,5.022,14.848,5.05,14.624c0.033-0.225,0.069-0.449,0.122-0.67
	c0.068-0.288,0.16-0.567,0.245-0.851c0.157-0.533,0.306-1.064,0.508-1.581C6.42,10.42,7.101,9.418,7.819,8.448
	c0.702-0.888,1.513-1.691,2.395-2.401c0.636-0.474,1.316-0.901,2.04-1.227c1.216-0.477,2.511-0.741,3.796-0.941
	c1.593-0.199,3.207-0.248,4.812-0.246c1.59,0.002,3.184,0.016,4.772,0.086c0.309,0.014,0.622,0.037,0.929,0.07
	c0.181,0.019,0.361,0.022,0.541,0.029c0.085,1.381,0.072,2.763,0.087,4.145c0.008,0.759,0.002,1.518,0.02,2.276
	c0.018,0.739,0.037,1.479,0.055,2.218c0.016,0.68,0.045,1.361,0.061,2.042c0.01,0.402,0.016,0.807,0.017,1.211
	C26.711,15.725,26.078,15.721,25.446,15.708z M24.139,5.779c-0.088,0-0.168,0.024-0.247,0.051c-0.125-0.095-0.271-0.162-0.437-0.157
	c-0.698,0.018-1.4-0.01-2.098-0.021c-0.773-0.014-1.543-0.035-2.314-0.037c-0.205-0.001-0.41-0.002-0.615-0.002
	c-0.562,0-1.123,0.008-1.683,0.045c-0.448,0.031-0.894,0.098-1.336,0.166c-0.368,0.059-0.731,0.155-1.081,0.28
	c-0.684,0.245-1.332,0.61-1.919,1.038c-0.321,0.237-0.624,0.487-0.909,0.765c-0.295,0.287-0.538,0.62-0.773,0.956
	c-0.03,0.044-0.036,0.096-0.054,0.144c-0.011,0.024-0.019,0.047-0.027,0.072c-0.009,0.038-0.02,0.073-0.022,0.111
	c-0.008,0.042-0.025,0.083-0.025,0.125c0,0.203,0.08,0.401,0.225,0.544c0.151,0.152,0.332,0.209,0.542,0.225
	c0.769,0.055,1.537,0.033,2.308,0.045c0.749,0.014,1.498,0.051,2.247,0.068c0.857,0.018,1.715,0.014,2.574,0.012
	c0.655-0.004,1.312-0.006,1.969,0c0.634,0.006,1.265,0.008,1.897,0.008c0.587,0,1.173-0.006,1.76,0.018
	c0.417,0.018,0.763-0.36,0.763-0.765c0-0.038-0.017-0.074-0.023-0.111c0.027-0.079,0.05-0.16,0.046-0.248
	c-0.043-0.845,0.01-1.688,0.031-2.533C24.949,6.143,24.565,5.779,24.139,5.779z M22.022,8.724c-0.741,0-1.484,0.01-2.228,0.014
	c-1.521,0.006-3.043-0.002-4.563-0.045c-0.604-0.016-1.211-0.043-1.815-0.049c-0.14-0.002-0.28-0.016-0.42-0.02
	c0.028-0.024,0.051-0.053,0.079-0.076c0.453-0.336,0.942-0.634,1.45-0.88c0.282-0.115,0.57-0.219,0.868-0.286
	c0.347-0.077,0.699-0.13,1.052-0.178c0.604-0.064,1.205-0.082,1.813-0.092c0.593-0.01,1.187-0.018,1.78-0.012
	c0.569,0.004,1.138,0.016,1.707,0.037c0.533,0.02,1.064,0.008,1.595,0.025c0.003,0.518-0.001,1.036-0.019,1.553
	c-0.247,0.002-0.494,0.009-0.74,0.009C22.396,8.724,22.208,8.724,22.022,8.724z"/>
</svg>