<?xml version="1.0" encoding="utf-8"?>
<!-- Uploaded to: SVG Repo, www.svgrepo.com, Generator: SVG Repo Mixer Tools -->
<svg fill="#000000" height="800px" width="800px" version="1.2" baseProfile="tiny" id="Layer_1" xmlns="http://www.w3.org/2000/svg" xmlns:xlink="http://www.w3.org/1999/xlink"
	  viewBox="0 0 256 256" xml:space="preserve">
<path id="XMLID_1_" d="M120.2,150l-19.7-49.9c0,0-2-20.7-3.7-28.4C88.6,36,48.7,3.8,5.8,3.8C4.6,3.8,4,3.8,2,3.9V253h46v-28h15.2
	c20.7,0,37.8-17.2,37.8-37.9V161h12.3c4.3,0,7.7-3.6,7.7-7.9C121,151.9,120.7,150.7,120.2,150z M77.4,119c-5.8,0-10.5-4.8-10.5-10.5
	c0-5.7,4.8-10.5,10.5-10.5s10.5,4.8,10.5,10.5C87.9,114.2,83.1,119,77.4,119z M135,153.1c0,4.3,3.5,7.9,7.7,7.9H155v26.1
	c0,20.7,17.1,37.9,37.8,37.9H208v28h46V3.9c-2,0-2.6-0.1-3.8-0.1c-42.9,0-82.7,32.2-91,67.9c-1.7,7.7-3.7,28.4-3.7,28.4L135.8,150
	C135.3,150.7,135,151.9,135,153.1z M168.1,108.5c0-5.7,4.8-10.5,10.5-10.5s10.5,4.8,10.5,10.5c0,5.7-4.7,10.5-10.5,10.5
	C172.9,119,168.1,114.2,168.1,108.5z"/>
</svg>