<?xml version="1.0" encoding="utf-8"?><!-- Uploaded to: SVG Repo, www.svgrepo.com, Generator: SVG Repo Mixer Tools -->
<svg width="800px" height="800px" viewBox="0 0 24 24" fill="none" xmlns="http://www.w3.org/2000/svg">
<path d="M6 21C7.5 19.4 9 17.9673 9 16.2C9 14.4327 7.65685 13 6 13C4.34315 13 3 14.4327 3 16.2C3 17.9673 4.5 19.4 6 21ZM6 21H17.5C18.8807 21 20 19.8807 20 18.5C20 17.1193 18.8807 16 17.5 16H15M18 11C19.5 9.4 21 7.96731 21 6.2C21 4.43269 19.6569 3 18 3C16.3431 3 15 4.43269 15 6.2C15 7.96731 16.5 9.4 18 11ZM18 11H14.5C13.1193 11 12 12.1193 12 13.5C12 14.8807 13.1193 16 14.5 16H15.6" stroke="#3CA877" stroke-width="2" stroke-linecap="round" stroke-linejoin="round"/>
</svg>