<?xml version="1.0" encoding="iso-8859-1"?>
<!-- Uploaded to: SVG Repo, www.svgrepo.com, Generator: SVG Repo Mixer Tools -->
<!DOCTYPE svg PUBLIC "-//W3C//DTD SVG 1.1//EN" "http://www.w3.org/Graphics/SVG/1.1/DTD/svg11.dtd">
<svg fill="#139ECA" height="800px" width="800px" version="1.1" id="Capa_1" xmlns="http://www.w3.org/2000/svg" xmlns:xlink="http://www.w3.org/1999/xlink" 
	 viewBox="0 0 283.831 283.831" xml:space="preserve">
<g>
	<path d="M171.484,134.682h-47c-5.247,0-9.5,4.253-9.5,9.5v130c0,5.247,4.253,9.5,9.5,9.5h47c5.247,0,9.5-4.253,9.5-9.5v-130
		C180.984,138.935,176.73,134.682,171.484,134.682z"/>
	<path d="M271.822,69.682h-47c-5.247,0-9.5,4.253-9.5,9.5v195c0,5.247,4.253,9.5,9.5,9.5h47c5.246,0,9.5-4.253,9.5-9.5v-195
		C281.322,73.935,277.069,69.682,271.822,69.682z"/>
	<path d="M71.145,176.831h-47c-5.247,0-9.5,4.253-9.5,9.5v88c0,5.247,4.254,9.5,9.5,9.5h47c5.247,0,9.5-4.253,9.5-9.5v-88
		C80.645,181.085,76.392,176.831,71.145,176.831z"/>
	<path d="M193.391,18.189L158.163,1.456c-7.486-3.558-16.431-0.369-19.984,7.113c-3.555,7.482-0.37,16.431,7.113,19.984l2.864,1.361
		L12.483,78.206C4.678,80.984,0.604,89.563,3.381,97.368c2.186,6.142,7.965,9.974,14.132,9.974c1.67,0,3.367-0.28,5.03-0.872
		l135.162-48.11l-1.031,2.17c-3.555,7.483-0.37,16.431,7.113,19.984c2.078,0.987,4.269,1.455,6.425,1.455
		c5.611-0.001,10.993-3.163,13.56-8.568l16.732-35.228C204.059,30.691,200.874,21.743,193.391,18.189z"/>
</g>
</svg>