<?xml version="1.0" encoding="utf-8"?>
<!-- Uploaded to: SVG Repo, www.svgrepo.com, Generator: SVG Repo Mixer Tools -->
<svg width="800px" height="800px" viewBox="0 0 1024 1024" fill="#9A7ACE" class="icon"  version="1.1" xmlns="http://www.w3.org/2000/svg"><path d="M824.213 565.969c0-131.466-70.845-245.552-173.954-301.334-7.788-55.695-55.597-98.719-113.388-98.719-13.26 0.023-25.98 2.303-37.806 6.477l0.942-51.391c-0.017-12.569-9.508-22.916-21.714-24.283l-0.109-39.845c0-0.94-0.196-1.824-0.273-2.731h19.836c9.039-0.013 16.363-7.343 16.363-16.384 0 0 0 0 0 0v-10.912c-0.006-9.037-7.327-16.361-16.361-16.373h-126.464c0 0 0 0 0 0-9.044 0-16.378 7.329-16.384 16.372v10.912c0 9.049 7.335 16.384 16.384 16.384 0 0 0 0 0 0h19.813c-0.087 0.907-0.273 1.791-0.273 2.731v39.846c-12.319 1.373-21.812 11.723-21.824 24.292v360.273c0 13.337 10.628 24.128 23.877 24.499v165.195h0.852c3.844 4.675 20.633 12.288 40.764 12.288 20.163 0 36.951-7.613 40.785-12.288h0.83v-165.184c13.263-0.359 23.879-11.187 23.899-24.498v-92.287c11.034 3.914 23.759 6.177 37.013 6.182 40.964 0 76.976-21.824 97.216-54.417 69.697 46.486 116.283 130.034 116.283 225.203 0 59.004-17.924 113.552-48.125 157.559l-82.281 32.866v-2.151h-326.162v35.477h326.162v-15.696l62.107-24.805c-44.226 49.775-106.223 80.817-174.784 80.817v0.611h-72.919v84.607h-234.729v98.26h511.771v-98.26h-129.652v-21.037c138.838-35.815 242.308-169.356 242.308-328.259zM536.87 370.628c-49.665 0-90.068-40.403-90.068-90.068s40.403-90.068 90.068-90.068c39.343 0 72.788 25.395 85.033 60.642-27.602-11.829-59.599-19.775-93.129-22.193 47.972-4.833 29.193-14.704 8.107-14.704-0.007 0-0.016 0-0.023 0-0.252-0.003-0.55-0.005-0.85-0.005-36.629 0-66.322 29.694-66.322 66.322 0 36.629 29.694 66.322 66.322 66.322 0.3 0 0.598-0.002 0.896-0.006 22.51-0.003 42.432-11.269 54.405-28.48 7.547 2.757 14.777 6.111 21.811 9.824-15.915 25.417-44.095 42.413-76.251 42.413z" /></svg>