<?xml version="1.0" encoding="utf-8"?><!-- Uploaded to: SVG Repo, www.svgrepo.com, Generator: SVG Repo Mixer Tools -->
<svg version="1.1" id="Uploaded to svgrepo.com" xmlns="http://www.w3.org/2000/svg" xmlns:xlink="http://www.w3.org/1999/xlink" 
	 width="800px" height="800px" viewBox="0 0 32 32" xml:space="preserve">
<style type="text/css">
	.sharpcorners_een{fill:#F96843;}
	.st0{fill:#F96843;}
</style>
<path class="sharpcorners_een" d="M1,7v18h30V7H1z M17,11h2v2h-2V11z M17,15h2v2h-2V15z M13,11h2v2h-2V11z M13,15h2v2h-2V15z M9,11
	h2v2H9V11z M9,15h2v2H9V15z M7,21H5v-2h2V21z M7,17H5v-2h2V17z M7,13H5v-2h2V13z M23,21H9v-2h14V21z M23,17h-2v-2h2V17z M23,13h-2
	v-2h2V13z M27,21h-2v-2h2V21z M27,17h-2v-2h2V17z M27,13h-2v-2h2V13z"/>
</svg>