<?xml version="1.0" encoding="iso-8859-1"?>
<!-- Uploaded to: SVG Repo, www.svgrepo.com, Generator: SVG Repo Mixer Tools -->
<svg height="800px" width="800px" version="1.1" id="Layer_1" xmlns="http://www.w3.org/2000/svg" xmlns:xlink="http://www.w3.org/1999/xlink" 
	 viewBox="0 0 392.598 392.598" xml:space="preserve">
<path style="fill:#FFFFFF;" d="M321.325,133.883c-3.297-0.323-6.335-2.069-8.145-4.848c-1.875-2.78-2.327-6.271-1.228-9.438
	c2.457-7.434,3.685-15.063,3.814-22.82c0.323-41.051-32.776-74.667-73.826-74.925c-0.259,0-0.388,0-0.646,0
	c-29.026,0-55.531,17.067-67.685,43.572c-1.487,3.232-4.396,5.495-7.887,6.206c-3.491,0.711-7.046-0.388-9.568-2.844
	c-10.214-9.762-23.467-15.063-37.495-15.063c-29.931,0-54.303,24.372-54.303,54.303c0,6.271,1.099,12.412,3.297,18.489
	c1.099,2.844,0.84,6.012-0.646,8.792c-1.422,2.715-3.943,4.719-6.853,5.495c-22.626,5.947-38.465,26.505-38.465,49.842
	c0,28.509,23.208,51.717,51.588,51.717c0.065,0,0.259,0,0.323,0c0.259-5.818,5.042-10.408,10.796-10.408h19.071L89.956,218.44
	c-4.848-4.913-3.943-11.378,0-15.451l38.788-38.723c4.267-4.267,11.119-4.267,15.451,0l13.511,13.511v-19.071
	c0-6.012,4.848-10.925,10.925-10.925h54.756c6.012,0,10.925,4.848,10.925,10.925v19.071l13.511-13.511
	c4.267-4.267,11.119-4.267,15.45,0l38.788,38.723c4.331,4.59,4.331,11.83,0,15.451l-13.253,13.382h19.071
	c5.818,0,10.537,4.59,10.796,10.279c28.897-1.228,51.976-25.018,51.976-54.174C370.78,159.612,349.511,136.404,321.325,133.883z"/>
<path style="fill:#FFC10D;" d="M265.859,246.238c-1.034-2.78-2.133-5.624-3.491-8.404c-2.004-4.202-1.228-9.18,2.069-12.541
	l14.739-14.739l-23.402-23.337l-14.675,14.739c-3.297,3.297-8.339,4.202-12.541,2.069c-2.78-1.422-5.624-2.521-8.404-3.491
	c-4.396-1.552-7.37-5.624-7.37-10.279v-20.816h-32.97v20.816c0,4.655-2.909,8.792-7.37,10.279c-2.78,1.034-5.624,2.133-8.404,3.491
	c-4.202,2.069-9.18,1.228-12.541-2.069l-14.675-14.739l-23.337,23.337l14.739,14.739c3.297,3.297,4.073,8.339,2.069,12.541
	c-1.422,2.78-2.521,5.624-3.491,8.404c-1.487,4.396-5.624,7.37-10.279,7.37H95.644v32.97h20.881c4.655,0,8.792,2.909,10.279,7.37
	c0.905,2.78,2.133,5.624,3.491,8.404c2.004,4.202,1.228,9.18-2.069,12.541l-14.739,14.739l23.337,23.337l14.739-14.739
	c3.297-3.297,8.339-4.202,12.541-2.069c2.78,1.293,5.56,2.521,8.404,3.491c4.396,1.552,7.37,5.624,7.37,10.279v20.816h32.97v-20.816
	c0-4.655,2.909-8.792,7.37-10.279c2.78-1.034,5.624-2.133,8.404-3.491c4.202-2.069,9.18-1.228,12.541,2.069l14.739,14.739
	l23.337-23.337l-14.739-14.739c-3.297-3.297-4.073-8.339-2.069-12.541c1.422-2.78,2.521-5.624,3.491-8.404
	c1.552-4.396,5.624-7.37,10.279-7.37h20.881v-32.97h-20.881C271.547,253.608,267.41,250.634,265.859,246.238z M248.145,270.093
	c0,28.574-23.273,51.846-51.846,51.846s-51.846-23.273-51.846-51.846s23.273-51.846,51.846-51.846S248.145,241.455,248.145,270.093z
	"/>
<g>
	<path style="fill:#194F82;" d="M335.806,114.295c1.099-5.689,1.681-11.507,1.681-17.39C337.939,43.895,295.143,0.453,242.133,0
		c-0.259,0-0.517,0-0.776,0c-32.97,0-63.354,17.002-80.873,44.283c-12.283-8.145-26.764-12.412-41.632-12.412
		c-41.956,0-76.089,34.133-76.089,76.089c0,5.107,0.517,10.279,1.616,15.321c-26.634,11.378-44.347,37.754-44.347,67.297
		c0,40.469,32.905,73.503,73.503,73.503c0.065,0,0.129,0,0.323,0v33.487c0,6.012,4.848,10.925,10.925,10.925h19.071l-13.576,13.446
		c-4.008,4.267-5.042,10.731,0,15.451l38.788,38.723c4.267,4.267,11.119,4.267,15.451,0l13.511-13.511v19.071
		c0,6.012,4.848,10.925,10.925,10.925h54.756c6.012,0,10.925-4.849,10.925-10.925v-19.071l13.511,13.511
		c4.267,4.267,11.119,4.267,15.451,0l38.788-38.723c4.202-4.073,4.396-11.119,0-15.451l-13.511-13.511h19.071
		c6.012,0,10.925-4.848,10.925-10.925v-33.616c40.857-1.228,73.697-34.844,73.697-75.96
		C392.566,152.501,368.905,122.828,335.806,114.295z M296.954,286.578h-20.881c-4.655,0-8.792,2.909-10.279,7.37
		c-0.905,2.78-2.133,5.624-3.491,8.404c-2.004,4.202-1.228,9.18,2.069,12.541l14.739,14.739l-23.402,23.273l-14.675-14.675
		c-3.297-3.297-8.339-4.073-12.541-2.069c-2.78,1.422-5.624,2.521-8.404,3.491c-4.396,1.552-7.37,5.624-7.37,10.279v20.816h-32.97
		v-20.816c0-4.655-2.909-8.792-7.37-10.279c-2.844-1.034-5.624-2.133-8.404-3.491c-4.202-2.069-9.18-1.228-12.541,2.069
		l-14.61,14.739l-23.337-23.337l14.739-14.739c3.297-3.297,4.073-8.339,2.069-12.541c-1.422-2.78-2.521-5.624-3.491-8.404
		c-1.552-4.396-5.624-7.37-10.279-7.37H95.644v-32.97h20.881c4.655,0,8.792-2.909,10.279-7.37c0.905-2.78,2.133-5.56,3.491-8.404
		c2.004-4.202,1.228-9.18-2.069-12.541l-14.739-14.739l23.337-23.337l14.739,14.739c3.297,3.297,8.339,4.073,12.541,2.069
		c2.78-1.422,5.624-2.521,8.404-3.491c4.396-1.552,7.37-5.624,7.37-10.279v-20.816h32.97v20.816c0,4.655,2.909,8.792,7.37,10.279
		c2.78,0.905,5.624,2.133,8.404,3.491c4.202,2.069,9.18,1.228,12.541-2.069l14.739-14.739l23.337,23.337l-14.739,14.739
		c-3.297,3.297-4.073,8.339-2.069,12.541c1.422,2.78,2.521,5.624,3.491,8.404c1.552,4.396,5.624,7.37,10.279,7.37h20.881v32.97
		H296.954z M318.804,242.101c-0.323-5.689-5.042-10.279-10.796-10.279h-19.071l13.511-13.511c4.331-3.62,4.331-10.796,0-15.451
		l-38.917-38.723c-4.267-4.267-11.119-4.267-15.451,0l-13.511,13.511v-19.071c0-6.012-4.848-10.925-10.925-10.925h-54.756
		c-6.012,0-10.925,4.848-10.925,10.925v19.071l-13.511-13.511c-4.267-4.267-11.119-4.267-15.451,0l-38.788,38.723
		c-3.943,4.073-4.848,10.537,0,15.451l13.511,13.511H84.655c-5.883,0-10.602,4.655-10.796,10.408c-0.065,0-0.259,0-0.323,0
		c-28.509,0-51.588-23.208-51.588-51.717c0-23.402,15.838-43.895,38.465-49.842c2.909-0.776,5.495-2.78,6.853-5.495
		s1.616-5.883,0.646-8.792c-2.133-6.012-3.297-12.283-3.297-18.489c0-29.931,24.372-54.303,54.303-54.303
		c13.964,0,27.281,5.301,37.495,15.063c2.521,2.457,6.077,3.491,9.568,2.844c3.491-0.711,6.4-2.909,7.887-6.206
		c12.154-26.505,38.659-43.572,67.685-43.572c0.129,0,0.388,0,0.646,0c41.05,0.323,74.085,34.004,73.826,74.925
		c-0.065,7.758-1.293,15.386-3.814,22.82c-1.099,3.168-0.646,6.659,1.228,9.438c1.875,2.78,4.784,4.59,8.145,4.848
		c28.186,2.457,49.39,25.729,49.39,54.044C370.78,217.083,347.572,240.873,318.804,242.101z"/>
	<path style="fill:#194F82;" d="M196.299,218.182c-28.574,0-51.846,23.273-51.846,51.846c0,28.574,23.273,51.846,51.846,51.846
		s51.846-23.273,51.846-51.846C248.145,241.454,224.873,218.182,196.299,218.182z M196.299,300.089
		c-16.614,0-30.061-13.446-30.061-30.061s13.511-30.061,30.061-30.061s30.061,13.446,30.061,30.061S212.913,300.089,196.299,300.089
		z"/>
</g>
<path style="fill:#56ACE0;" d="M319.386,155.604L319.386,155.604c-21.01-1.875-34.78-22.82-28.121-42.796l0,0
	c1.681-5.236,2.65-10.667,2.715-16.162c0.259-28.962-23.208-52.752-52.17-53.01c-0.129,0-0.323,0-0.388,0
	c-20.558,0-39.24,12.024-47.838,30.836l0,0c-9.309,20.493-36.073,25.6-52.299,10.02l0,0c-6.077-5.883-14.093-9.051-22.432-9.051
	c-17.907,0-32.453,14.61-32.453,32.453c0,3.685,0.711,7.434,2.004,11.055c6.529,18.036-3.814,37.818-22.368,42.731h-0.065
	c-13.77,3.685-23.208,16.679-22.109,31.095c1.164,15.644,14.545,27.539,30.255,27.539h18.36l-2.069-2.069
	c-4.848-4.978-3.943-11.378,0-15.451l38.788-38.723c4.267-4.267,11.119-4.267,15.451,0l13.511,13.511v-19.071
	c0-6.012,4.848-10.925,10.925-10.925h54.756c6.012,0,10.925,4.848,10.925,10.925v19.071l13.511-13.511
	c4.267-4.267,11.119-4.267,15.451,0l38.788,38.723c4.331,4.59,4.331,11.83,0,15.451l-2.327,2.069h16.226
	c17.907,0,32.452-14.61,32.452-32.453C348.929,171.313,335.935,157.091,319.386,155.604z"/>
</svg>