<?xml version="1.0" encoding="iso-8859-1"?>
<!-- Uploaded to: SVG Repo, www.svgrepo.com, Generator: SVG Repo Mixer Tools -->
<svg height="800px" width="800px" version="1.1" id="Layer_1" xmlns="http://www.w3.org/2000/svg" xmlns:xlink="http://www.w3.org/1999/xlink" 
	 viewBox="0 0 512 512" xml:space="preserve">
<g transform="translate(1 1)">
	<path style="fill:#FFDD09;" d="M314.733,75.8H195.267V14.36c0-3.413,3.413-6.827,6.827-6.827h105.813
		c3.413,0,6.827,3.413,6.827,6.827V75.8z"/>
	<g>
		<path style="fill:#FCC309;" d="M314.733,48.493c-4.267-4.267-10.24-6.827-17.067-6.827c-14.507,0-25.6,11.093-25.6,25.6
			c0,3.413,0.853,5.973,1.707,8.533h40.96V48.493z"/>
		<path style="fill:#FCC309;" d="M212.333,50.2c14.507,0,25.6-11.093,25.6-25.6c0-6.827-2.56-12.8-6.827-17.067h-29.013
			c-3.413,0-6.827,3.413-6.827,6.827v29.013C199.533,47.64,205.507,50.2,212.333,50.2"/>
	</g>
	<path style="fill:#FFFFFF;" d="M118.467,365.933c0-51.2,22.187-96.427,56.32-124.587c17.067-13.653,27.307-34.987,27.307-58.027
		v-73.387h-6.827v73.387c0,23.04-11.947,44.373-30.72,58.027c-38.4,28.16-63.147,73.387-63.147,124.587
		c0,59.733,34.133,110.933,83.627,136.533h7.68C148.333,476.867,118.467,425.667,118.467,365.933"/>
	<path style="fill:#FD9808;" d="M345.453,241.347c-18.773-13.653-30.72-34.987-30.72-58.027v-73.387h-6.827v73.387
		c0,23.04,10.24,44.373,27.307,58.027c34.133,28.16,56.32,73.387,56.32,124.587c0,59.733-29.867,110.933-74.24,136.533h7.68
		c49.493-25.6,83.627-76.8,83.627-136.533C408.6,314.733,383.853,269.507,345.453,241.347"/>
	<path style="fill:#FFDD09;" d="M307.907,183.32v-73.387H202.093v73.387c0,23.04-10.24,44.373-27.307,58.027
		c-34.133,28.16-56.32,73.387-56.32,124.587c0,59.733,29.867,110.933,74.24,136.533h124.587c44.373-25.6,74.24-76.8,74.24-136.533
		c0-51.2-22.187-96.427-56.32-124.587C318.147,227.693,307.907,206.36,307.907,183.32"/>
	<path style="fill:#54C9FD;" d="M262.68,331.8c-34.133-46.08-103.253-44.373-136.533,0c0,0-1.707,2.56-5.973,7.68
		c-0.853,8.533-1.707,17.92-1.707,26.453c0,59.733,29.867,110.933,74.24,136.533h124.587c44.373-25.6,74.24-76.8,74.24-136.533
		c0-11.947,2.56-14.507,0-25.6c-2.56,0-8.533,0-8.533,0C343.747,387.267,298.52,375.32,262.68,331.8"/>
	<path style="fill:#33A9F8;" d="M405.187,331.8c-2.56,0-5.12,0-5.12,0c-3.413,3.413-6.827,6.827-10.24,10.24
		c0.853,7.68,1.707,15.36,1.707,23.893c0,59.733-29.867,110.933-74.24,136.533h7.68c49.493-25.6,83.627-76.8,83.627-136.533
		C408.6,353.987,406.893,342.893,405.187,331.8"/>
	<path style="fill:#FFFFFF;" d="M118.467,365.933c0-8.533,0.853-17.92,1.707-26.453c3.413-5.12,5.973-7.68,5.973-7.68
		c16.213-21.333,40.107-32.427,64.853-34.133c-29.867-0.853-61.44,10.24-81.067,34.133c0,0-2.56,2.56-5.973,7.68
		c-1.707,8.533-2.56,17.067-2.56,26.453c0,59.733,34.133,110.933,83.627,136.533h7.68
		C148.333,476.867,118.467,425.667,118.467,365.933"/>
	<path style="fill:#FCC309;" d="M307.907,109.933H202.093c-4.267,0-6.827-3.413-6.827-6.827v-20.48c0-3.413,3.413-6.827,6.827-6.827
		h104.96c4.267,0,7.68,3.413,7.68,6.827v19.627C314.733,106.52,311.32,109.933,307.907,109.933"/>
	<path style="fill:#FFFFFF;" d="M195.267,103.107v-20.48c0-3.413,3.413-6.827,6.827-6.827h-25.6c-3.413,0-6.827,3.413-6.827,6.827
		v19.627c0,4.267,3.413,7.68,6.827,7.68h25.6C198.68,109.933,195.267,106.52,195.267,103.107"/>
	<path style="fill:#FD9808;" d="M333.507,75.8h-25.6c3.413,0,6.827,3.413,6.827,6.827v19.627c0,4.267-3.413,6.827-6.827,6.827h25.6
		c4.267,0,6.827-3.413,6.827-6.827V82.627C340.333,79.213,336.92,75.8,333.507,75.8"/>
	<g>
		<path style="fill:#33A9F8;" d="M178.2,400.067h-17.067c-4.267,0-8.533-3.413-8.533-8.533v-17.067c0-4.267,3.413-8.533,8.533-8.533
			H178.2c4.267,0,8.533,3.413,8.533,8.533v17.067C186.733,396.653,183.32,400.067,178.2,400.067"/>
		<path style="fill:#33A9F8;" d="M314.733,451.267h-17.067c-4.267,0-8.533-3.413-8.533-8.533v-17.067
			c0-4.267,3.413-8.533,8.533-8.533h17.067c4.267,0,8.533,3.413,8.533,8.533v17.067
			C323.267,447.853,319.853,451.267,314.733,451.267"/>
	</g>
	<g>
		<path style="fill:#020101;" d="M327.533,511H182.467l-1.707-0.853C127,481.987,92.867,426.52,92.867,365.933
			c0-52.053,24.747-100.693,66.56-131.413c17.067-12.8,27.307-30.72,27.307-51.2V101.4h136.533v81.92
			c0,19.627,10.24,38.4,27.307,51.2c41.813,30.72,66.56,79.36,66.56,131.413c0,60.587-34.133,116.053-87.893,144.213L327.533,511z
			 M186.733,493.933h136.533c47.787-25.6,76.8-74.24,76.8-128c0-46.08-22.187-90.453-59.733-117.76
			C319,232.813,306.2,208.067,306.2,183.32v-64.853H203.8v64.853c0,25.6-12.8,49.493-34.133,64.853
			c-37.547,27.307-59.733,71.68-59.733,117.76C109.933,419.693,139.8,468.333,186.733,493.933z"/>
		<path style="fill:#020101;" d="M333.507,118.467H176.493c-8.533,0-15.36-6.827-15.36-15.36v-20.48
			c0-8.533,6.827-15.36,15.36-15.36h156.16c8.533,0,15.36,6.827,15.36,15.36v19.627C348.867,111.64,342.04,118.467,333.507,118.467z
			 M178.2,101.4h153.6V84.333H178.2V101.4z"/>
		<path style="fill:#020101;" d="M323.267,84.333H186.733V14.36c0-8.533,6.827-15.36,15.36-15.36h105.813
			c8.533,0,15.36,6.827,15.36,15.36V84.333z M203.8,67.267h102.4v-51.2H203.8V67.267z"/>
		<path style="fill:#020101;" d="M323.267,84.333H267.8l-1.707-5.973c-1.707-3.413-2.56-7.68-2.56-11.093
			c0-18.773,15.36-34.133,34.133-34.133c8.533,0,16.213,3.413,23.04,8.533l2.56,2.56V84.333z M280.6,67.267h25.6V52.76
			c-2.56-1.707-5.12-2.56-8.533-2.56C288.28,50.2,280.6,57.88,280.6,67.267z"/>
		<path style="fill:#020101;" d="M212.333,58.733c-8.533,0-16.213-3.413-23.04-8.533l-2.56-2.56V14.36
			c0-8.533,6.827-15.36,15.36-15.36h33.28l2.56,2.56c5.12,6.827,8.533,14.507,8.533,23.04
			C246.467,43.373,231.107,58.733,212.333,58.733z M203.8,39.107c2.56,1.707,5.12,2.56,8.533,2.56
			c9.387,0,17.067-7.68,17.067-17.067c0-3.413-0.853-5.973-2.56-8.533H203.8V39.107z"/>
		<path style="fill:#020101;" d="M255,365.933c0,5.12-3.413,8.533-8.533,8.533c-5.12,0-8.533-3.413-8.533-8.533
			s3.413-8.533,8.533-8.533C251.587,357.4,255,361.667,255,365.933"/>
		<path style="fill:#020101;" d="M220.867,459.8c0,5.12-3.413,8.533-8.533,8.533s-8.533-3.413-8.533-8.533s3.413-8.533,8.533-8.533
			S220.867,455.533,220.867,459.8"/>
		<path style="fill:#020101;" d="M178.2,408.6h-17.067c-9.387,0-17.067-7.68-17.067-17.067v-17.067
			c0-9.387,7.68-17.067,17.067-17.067H178.2c9.387,0,17.067,7.68,17.067,17.067v17.067C195.267,400.92,187.587,408.6,178.2,408.6z
			 M178.2,374.467h-17.067v17.067H178.2V374.467z M178.2,391.533L178.2,391.533L178.2,391.533z"/>
		<path style="fill:#020101;" d="M314.733,459.8h-17.067c-9.387,0-17.067-7.68-17.067-17.067v-17.067
			c0-9.387,7.68-17.067,17.067-17.067h17.067c9.387,0,17.067,7.68,17.067,17.067v17.067C331.8,452.12,324.12,459.8,314.733,459.8z
			 M314.733,425.667h-17.067v17.067h17.067V425.667z M314.733,442.733L314.733,442.733L314.733,442.733z"/>
		<path style="fill:#020101;" d="M327.533,511H182.467l-1.707-0.853C127,481.987,92.867,426.52,92.867,365.933
			c0-9.387,0.853-18.773,2.56-27.307v-1.707l7.68-9.387c19.627-23.893,51.2-37.547,84.48-37.547h0.853
			c32.427,0,62.293,13.653,81.067,36.693c18.773,20.48,40.107,30.72,61.44,31.573c21.333,0,43.52-11.093,62.293-31.573l2.56-2.56
			l15.36,0.853l1.707,5.973c2.56,11.947,4.267,23.893,4.267,35.84C417.133,427.373,383,482.84,329.24,511H327.533z M186.733,493.933
			h136.533c47.787-25.6,76.8-74.24,76.8-128c0-6.827-0.853-13.653-1.707-20.48c-20.48,18.773-43.52,29.013-66.56,29.013
			c0,0,0,0-0.853,0c-26.453,0-52.053-12.8-74.24-36.693l0,0c-16.213-19.627-40.96-30.72-68.267-30.72h-0.853
			c-28.16,0-54.613,11.947-70.827,30.72l-5.12,5.973c-0.853,6.827-1.707,14.507-1.707,22.187
			C109.933,419.693,139.8,468.333,186.733,493.933z"/>
	</g>
</g>
</svg>