<?xml version="1.0" encoding="utf-8"?>
<!-- Uploaded to: SVG Repo, www.svgrepo.com, Generator: SVG Repo Mixer Tools -->
<svg fill="#000000" width="800px" height="800px" viewBox="0 0 32 32" version="1.1" xmlns="http://www.w3.org/2000/svg">
<title>powerbi</title>
<path d="M13.501 16h-7.498c0 0-0 0-0 0-0.69 0-1.25 0.559-1.25 1.25 0 0 0 0 0 0v0 12.496c0 0 0 0 0 0 0 0.69 0.559 1.25 1.25 1.25 0 0 0 0 0 0h8.747v-13.746c0-0.69-0.559-1.25-1.25-1.25v0zM19.749 8.502h-7.498c0 0-0 0-0 0-0.69 0-1.25 0.559-1.25 1.25 0 0 0 0 0 0v0 5.623h2.499c1.035 0.001 1.873 0.84 1.874 1.874v13.746h5.623v-21.244c0-0.69-0.559-1.25-1.25-1.25v0zM27.247 2.254v27.492c0 0 0 0 0 0 0 0.69-0.559 1.25-1.25 1.25 0 0-0 0-0 0h-4.374v-21.244c-0.001-1.035-0.84-1.873-1.874-1.874h-2.499v-5.623c0-0 0-0 0-0 0-0.69 0.559-1.25 1.25-1.25h7.498c0.69 0 1.25 0.559 1.25 1.25 0 0 0 0 0 0v0z"></path>
</svg>