<?xml version="1.0" encoding="utf-8"?>

<!DOCTYPE svg PUBLIC "-//W3C//DTD SVG 1.1//EN" "http://www.w3.org/Graphics/SVG/1.1/DTD/svg11.dtd">
<!-- Uploaded to: SVG Repo, www.svgrepo.com, Generator: SVG Repo Mixer Tools -->
<svg version="1.1" id="_x32_" xmlns="http://www.w3.org/2000/svg" xmlns:xlink="http://www.w3.org/1999/xlink" 
	 viewBox="0 0 512 512"  xml:space="preserve">
<style type="text/css">
	.st0{fill:#000000;}
</style>
<g>
	<rect x="114.087" y="148.892" class="st0" width="157.906" height="26.318"/>
	<rect x="114.087" y="245.39" class="st0" width="157.906" height="26.318"/>
	<rect x="114.087" y="341.888" class="st0" width="96.498" height="26.318"/>
	<path class="st0" d="M454.95,86.619c-78.157,10.768-159.83,199.833-196.664,267.692c-9.252,17.049,12.264,31.278,21.786,14.958
		c6.862-11.728,44.291-85.601,44.291-85.601c40.77,1.345,55.806-27.123,39.511-44.805c54.794,1.131,81.952-29.025,66.412-47.324
		c16.345,5.175,30.498,1.713,51.521-9.749C526.664,157.321,524.573,75.421,454.95,86.619z"/>
	<path class="st0" d="M350.998,307.03V443.15c0,4.034-3.29,7.316-7.316,7.324H42.407c-4.027-0.008-7.308-3.29-7.316-7.324v-374.3
		c0.009-4.036,3.29-7.316,7.316-7.325h301.275c4.027,0.009,7.316,3.29,7.316,7.325v67.961c11.48-15.463,23.147-29.144,35.09-40.504
		V68.851c-0.018-23.431-18.967-42.398-42.407-42.416H42.407C18.976,26.453,0.009,45.42,0,68.851v374.3
		c0.009,23.431,18.976,42.398,42.407,42.414h301.275c23.44-0.016,42.389-18.984,42.407-42.414V284.704
		C377.967,295.404,365.87,303.114,350.998,307.03z"/>
</g>
</svg>